<svg xmlns="http://www.w3.org/2000/svg" viewBox="0 0 600.26 70.78">
    <defs>
        <style>.cls-1{fill:#231f20;}</style>
    </defs>
    <title>Asset 1</title>
    <g id="Layer_2" data-name="Layer 2">
        <g id="Layer_1-2" data-name="Layer 1">
            <path class="cls-1" d="M11.09,47.06c0,8.77,5.5,13.79,13.12,13.79,6.17,0,11.09-4,11.09-10,0-6.85-6.08-9.07-10.71-10.7C12.25,35.78,2.32,32,2.32,18.52,2.32,7.33,12,0,23.24,0c12.15,0,21.5,8.58,21.5,21.12H33.66c0-6.66-3.86-11.19-10.13-11.19-5.49,0-10.13,2.9-10.13,8.59,0,5.49,4.83,8.1,9.84,9.93,10.51,3.76,23.14,8.19,23.14,21.12,0,13.88-10.6,21.21-23.14,21.21C11,70.78,0,62.2,0,47.06Z"/>
            <path class="cls-1" d="M103.61,10.73H93V1.64h32v9.09H114.35V40.36H103.61Z"/>
            <path class="cls-1" d="M109.23,54.2A7.76,7.76,0,1,1,101.51,62,7.78,7.78,0,0,1,109.23,54.2Z"/>
            <path class="cls-1" d="M191.7,11.57V33h27.87v9.93H191.7V69.14H180.61V1.64h39v9.93Z"/>
            <path class="cls-1" d="M267.6,1.64h24.21c14.46,0,23.82,10.9,23.82,23.62a23.3,23.3,0,0,1-14.27,21.9l13.4,22H302.13L289.78,48.89H278.69V69.14H267.6Zm36.94,23.62c0-7.42-5-13.69-12.73-13.69H278.69V39h13.12C299.52,39,304.54,32.69,304.54,25.26Z"/>
            <path class="cls-1" d="M400.9,69.14,398,60.56H372.64l-2.89,8.58H358.08l23.34-67.5h7.81l23.33,67.5ZM385.37,20.06,376,50.63h18.61Z"/>
            <path class="cls-1" d="M493.88,49.66v-48H505v67.5H492.82l-26.71-48v48H455V1.64h12.15Z"/>
            <path class="cls-1" d="M561.3,39.54v29.6H550.21V1.64H561.3v29.7l25.07-29.7h13.89L571.72,35.39l28.54,33.75H586.37Z"/>
        </g>
    </g>
</svg>